# xmcd
#
# Track frame offsets:
#	150
#	13964
#	30250
#	45807
#	59865
#	75628
#	93681
#	113514
#	130625
#	146871
#	161969
#	176295
#	192710
#	209443
#	226044
#	245177
#	261047
#	274582
#	292986
#	309070
#	323435
#	340316
#
# Disc length: 4765 seconds
#
# Revision: 3
# Processed by: cddbd v1.5.2PL0 Copyright (c) Steve Scherf et al.
# Submitted via: EZCDAudioConverter 3.1.1.2
#
DISCID=34129b16
DTITLE=Various Artist - Hit Country 2013 (ALAC)
DYEAR=2012
DGENRE=Country
TTITLE0=McAlister Kemp - Country Proud
TTITLE1=Kip Moore - Somethin' 'Bout A Truck
TTITLE2=Carrie Underwood - Good Girl
TTITLE3=Jasmine Rae - I Faked It
TTITLE4=Lee Kernaghan and Robby - Fire
TTITLE5=Dierks Bentley - Home
TTITLE6=Eric Church - Springsteen
TTITLE7=Troy Cassar-Daley - Country Is
TTITLE8=Zac Brown Band - Keep Me In Mind
TTITLE9=Craig Campbell - When I Get It
TTITLE10=The McClymonts - How Long Have You Known
TTITLE11=Kelly Clarkson - Mr Know It All
TTITLE12=Baylou - Target On My Heart
TTITLE13=Eli Young Band - Even If It Breaks Your Heart
TTITLE14=Miranda Lambert - Over You
TTITLE15=Doc Walker - Country Girl
TTITLE16=Dean Brody - Little Yellow Blanket
TTITLE17=Morgan Evans - Live Each Day
TTITLE18=Jake Owen - Alone With You
TTITLE19=Emerson Drive - Sleep It Off
TTITLE20=Peter McWhirter - How Can I Let You Go?
TTITLE21=Jetty Road - Sweet Goodbye
EXTD=
EXTT0=
EXTT1=
EXTT2=
EXTT3=
EXTT4=
EXTT5=
EXTT6=
EXTT7=
EXTT8=
EXTT9=
EXTT10=
EXTT11=
EXTT12=
EXTT13=
EXTT14=
EXTT15=
EXTT16=
EXTT17=
EXTT18=
EXTT19=
EXTT20=
EXTT21=
PLAYORDER=
